<?xml version="1.0" encoding="UTF-8"?>
<svg width="220px" height="220px" viewBox="0 0 220 220" version="1.1" xmlns="http://www.w3.org/2000/svg" xmlns:xlink="http://www.w3.org/1999/xlink">
    <!-- Generator: Sketch 64 (93537) - https://sketch.com -->
    <title>画板@2x</title>
    <desc>Created with Sketch.</desc>
    <g id="画板" stroke="none" stroke-width="1" fill="none" fill-rule="evenodd">
        <g id="火箭-" transform="translate(110.000000, 110.000000) rotate(45.000000) translate(-110.000000, -110.000000) translate(60.000000, 6.000000)" fill-rule="nonzero">
            <path d="M62.6464466,177.377456 C62.6464466,183.711858 58.3131133,193.609482 49.6464466,207.070328 C40.9797799,193.609344 36.6464466,183.71172 36.6464466,177.377456 C36.6464466,167.875852 42.4457696,160.154998 49.6461356,160.070328 C56.7833692,160.070328 62.6459801,167.875438 62.6464466,177.377456 Z" id="路径" fill="#4A90E2"></path>
            <path d="M99.1853516,133.285937 L99.1853516,145.612109 C99.1853516,171.545312 77.0140625,131.445312 49.6402344,131.445312 C22.2664063,131.445312 0.0947265625,171.706055 0.0947265625,145.612109 L0.0947265625,133.285937 C0.0947265625,107.352734 22.2666016,90.6240234 49.6402344,90.6240234 C77.0140625,90.6240234 99.1853516,107.352539 99.1853516,133.285937 Z" id="路径" fill="#4A90E2"></path>
            <path d="M49.6402344,0.0177734375 C57.9646484,0.0177734375 82.5371094,29.4503838 82.6171875,82.7290991 C82.5369141,117.331129 77.8947266,134.340489 77.8947266,134.340489 C74.2927734,153.767725 63.8076172,154.017773 49.7201172,154.017773 C35.6326172,154.017773 25.0677734,153.850939 21.5455078,134.340489 C21.5455078,134.340489 16.9029297,117.164295 16.8230469,82.5622649 C16.8230469,29.3671701 41.2359375,-0.0656436784 49.6398437,0.0177734375 L49.6402344,0.0177734375 Z" id="路径" fill="#F4F0D3"></path>
            <path d="M49.1195622,147.060157 C34.3920231,147.060157 23.835823,147.06016 20.1537917,127.530082 L19.6354783,124.235027 C20.7559861,131.598894 21.3846179,135.323309 21.3846179,135.323309 C24.9066883,154.052801 35.35257,154.264063 49.44007,154.264063 C63.52757,154.264063 73.9328434,153.943946 77.6146793,135.374414 C77.6146793,135.374414 79.7754215,127.610157 81.2166325,111.922461 C79.8558903,122.248047 78.4146793,127.371094 78.4146793,127.371094 C74.5726872,146.740039 63.6871403,147.060157 49.1195622,147.060157 Z" id="路径" fill="#E8E4C8"></path>
            <path d="M49.6402344,53.6457031 C57.484375,53.6457031 63.8070312,59.9689453 63.8070312,67.8125 C63.8070312,75.6566406 57.4837891,81.9792969 49.6402344,81.9792969 C41.7960937,81.9792969 35.4734375,75.6560547 35.4734375,67.8125 C35.4734375,59.9689453 41.8767578,53.5648437 49.6402344,53.6457031 Z" id="路径" fill="#9B9B9B"></path>
            <path d="M42.0363281,60.1285156 C44.0373047,58.1275391 46.7585937,57.0066406 49.6402344,57.0066406 C52.521875,57.0066406 55.2433594,58.1275391 57.2441406,60.1285156 C59.2449219,62.1294922 60.3660156,64.8507812 60.3660156,67.7324219 C60.3660156,70.6138672 59.2455078,73.3355469 57.2441406,75.3365234 C55.2427734,77.3375 52.521875,78.4580078 49.6402344,78.4580078 C46.7587891,78.4580078 44.0371094,77.3375 42.0363281,75.3365234 C40.0355469,73.3355469 38.9148437,70.6142578 38.9148437,67.7324219 C38.9148437,64.8509766 40.0357422,62.1292969 42.0363281,60.1285156 M39.6351562,57.7277344 C37.0740234,60.2888672 35.4728516,63.8109375 35.5529297,67.7326172 C35.5529297,75.5767578 41.8761719,81.8994141 49.7197266,81.8994141 C53.5617187,81.8994141 57.1634766,80.3787109 59.7246094,77.8171875 C62.2857422,75.2556641 63.8869141,71.7339844 63.8068359,67.8123047 C63.8068359,59.9681641 57.4835937,53.6455078 49.6400391,53.6455078 C45.7181641,53.5652344 42.1962891,55.1662109 39.6351562,57.7277344 Z" id="形状" fill="#324D5B"></path>
            <path d="M51.2408203,33.9550781 C59.4849609,33.8748047 67.0089844,31.7939453 72.8519531,28.1919922 C65.0076172,9.78261719 54.5224609,0.09765625 49.6396484,0.0171875 C44.9171875,-0.0630859375 34.9125,9.14179687 27.1482422,26.5111328 C33.2322266,31.153125 41.7962891,33.9550781 51.2408203,33.9550781 Z" id="路径" fill="#4A90E2"></path>
        </g>
    </g>
</svg>